Coordinates
version=1
nRows=4
nColumns=63
inDegrees=yes

Units are S.I. units (second, meters, Newtons, ...)
If the header above contains a line with 'inDegrees', this indicates whether rotational values are in degrees (yes) or radians (no).

endheader
time	pelvis_tilt	pelvis_list	pelvis_rotation	pelvis_tx	pelvis_ty	pelvis_tz	hip_flexion_r	hip_adduction_r	hip_rotation_r	knee_angle_r	knee_angle_r_beta	ankle_angle_r	subtalar_angle_r	mtp_angle_r	hip_flexion_l	hip_adduction_l	hip_rotation_l	knee_angle_l	knee_angle_l_beta	ankle_angle_l	subtalar_angle_l	mtp_angle_l	L5_S1_Flex_Ext	L5_S1_Lat_Bending	L5_S1_axial_rotation	L4_L5_Flex_Ext	L4_L5_Lat_Bending	L4_L5_axial_rotation	L3_L4_Flex_Ext	L3_L4_Lat_Bending	L3_L4_axial_rotation	L2_L3_Flex_Ext	L2_L3_Lat_Bending	L2_L3_axial_rotation	L1_L2_Flex_Ext	L1_L2_Lat_Bending	L1_L2_axial_rotation	L1_T12_Flex_Ext	L1_T12_Lat_Bending	L1_T12_axial_rotation	Abs_r3	Abs_r2	Abs_r1	Abs_t1	Abs_t2	neck_flexion	neck_bending	neck_rotation	arm_flex_r	arm_add_r	arm_rot_r	elbow_flex_r	pro_sup_r	wrist_flex_r	wrist_dev_r	arm_flex_l	arm_add_l	arm_rot_l	elbow_flex_l	pro_sup_l	wrist_flex_l	wrist_dev_l
      1.05084746	      3.16828432	     -5.20496510	     95.75792894	      0.22047329	      0.96107661	      0.47334829	     10.15903050	      2.42168512	     -4.18773718	      7.80890710	      0.13629114	     23.84784527	     -7.99529571	      0.00000000	      9.19378357	     -1.52829657	      1.45538196	      5.18405669	      0.09047886	     26.75580789	      2.25608241	      0.00000000	      0.53112023	      0.43932978	     -0.54236220	      0.98634338	      0.58430860	     -0.57625984	      0.87257742	      1.06818642	     -0.57625984	      0.60701731	      1.06818642	     -0.47456693	      0.49319824	      0.89588128	     -0.44066929	      0.30348210	      0.68052183	     -0.40677165	      3.79373868	      4.96978631	     -3.01645586	      0.00000000	      0.00000000	     28.29808380	      5.86765366	     11.13056854	     21.24982495	    -15.22218999	     59.32952127	     43.78745440	     59.74290343	    -12.09702570	     -7.45883013	     16.80615465	     -2.68821574	     40.53832262	     58.53849220	     54.31466997	     -7.32720144	      6.74258220
      1.06779661	      3.17182255	     -5.06931237	     96.41171920	      0.21986201	      0.96146332	      0.47252020	      9.94889584	      2.32322239	     -5.18733834	      7.89720652	      0.13783226	     24.50811245	     -7.26456417	      0.00000000	      9.07100077	     -1.49567685	      1.57170951	      5.20169687	      0.09078674	     26.96662714	      3.08791343	      0.00000000	      0.52982426	      0.42364443	     -0.62957319	      0.98393663	      0.56344710	     -0.66892151	      0.87044827	      1.03004908	     -0.66892151	      0.60553614	      1.03004908	     -0.55087654	      0.49199481	      0.86389573	     -0.51152821	      0.30274158	      0.65622523	     -0.47217989	      3.78448169	      4.79235056	     -3.50149718	      0.00000000	      0.00000000	     28.29601136	      5.81969422	     10.29989974	     20.57284104	    -16.18582198	     57.03440708	     44.24069688	     70.72882195	    -13.26721949	     -5.92125772	     16.02831225	     -3.43115984	     39.17363958	     59.47749721	     62.46454196	     -8.34123900	      8.83850784
      1.08474576	      3.18612273	     -4.80952540	     97.21329546	      0.21920716	      0.96200707	      0.47135277	      9.51921771	      2.26012684	     -6.14386716	      7.86521975	      0.13727398	     24.97855439	     -6.79959816	      0.00000000	      8.81676174	     -1.48786522	      1.68402637	      5.21330086	      0.09098926	     27.14845657	      4.04210872	      0.00000000	      0.51705805	      0.40832708	     -0.78484921	      0.96022851	      0.54307501	     -0.83390228	      0.84947467	      0.99280645	     -0.83390228	      0.59094565	      0.99280645	     -0.68674306	      0.48014011	      0.83266057	     -0.63768998	      0.29544697	      0.63249864	     -0.58863691	      3.69329396	      4.61907755	     -4.36509584	      0.00000000	      0.00000000	     28.28940424	      5.66226511	      9.37785304	     19.93715893	    -17.08448995	     54.18349324	     44.93593023	     83.38695144	    -13.18888553	     -3.82979934	     14.91617989	     -4.33622510	     37.25793260	     60.74337584	     70.72731344	     -8.72296706	     11.52109493
      1.10169492	      3.25861226	     -4.50117286	     98.07299027	      0.21838012	      0.96251923	      0.46972148	      9.01765243	      2.28970834	     -6.83418694	      7.83998307	      0.13683352	     25.27627184	     -6.89765138	      0.00000000	      8.48514582	     -1.53223774	      1.90808667	      5.18602214	      0.09051316	     27.43813545	      4.74370067	      0.00000000	      0.50808108	      0.40296667	     -0.98951449	      0.94355736	      0.53594568	     -1.05135914	      0.83472640	      0.97977317	     -1.05135914	      0.58068586	      0.97977317	     -0.86582517	      0.47180409	      0.82172964	     -0.80398052	      0.29031753	      0.62419538	     -0.74213586	      3.62917231	      4.55843962	     -5.50338271	      0.00000000	      0.00000000	     28.27374647	      5.66954753	      8.77898410	     20.09520105	    -18.17817215	     54.52581983	     45.55700654	     87.22886928	    -14.66035757	     -3.51031527	     13.75892529	     -5.30505423	     35.36689895	     62.10069168	     77.95763057	     -9.34740620	     14.41752591
